<?xml version="1.0" encoding="UTF-8" standalone="no"?>
<svg width="145px" height="144px" viewBox="0 0 145 144" version="1.1" xmlns="http://www.w3.org/2000/svg" xmlns:xlink="http://www.w3.org/1999/xlink" xmlns:sketch="http://www.bohemiancoding.com/sketch/ns">
    <!-- Generator: Sketch 3.5.1 (25234) - http://www.bohemiancoding.com/sketch -->
    <title>globe</title>
    <desc>Created with Sketch.</desc>
    <defs></defs>
    <g id="Page-1" stroke="none" stroke-width="1" fill="none" fill-rule="evenodd" sketch:type="MSPage">
        <ellipse id="Oval-1" stroke="#9B9B9B" stroke-width="3" fill="#9B9B9B" sketch:type="MSShapeGroup" cx="72.5" cy="72" rx="70.5" ry="70"></ellipse>
        <g id="Group-3" sketch:type="MSLayerGroup" transform="translate(36.000000, 30.000000)">
            <path d="M65.7476706,29.812963 C65.7476706,46.2793519 52.1075402,59.6275 35.2805836,59.6275 C18.4536271,59.6275 4.81349669,46.2793519 4.81349669,29.812963 C4.81349669,13.3481481 18.4536271,0 35.2805836,0 C52.1075402,0 65.7476706,13.3481481 65.7476706,29.812963" id="Fill-2" fill="#15928A" sketch:type="MSShapeGroup"></path>
            <path d="M64.138975,77.3200926 C64.138975,80.0306481 54.4594532,82.2327778 42.5197141,82.2327778 C30.5767576,82.2327778 20.9004532,80.0306481 20.9004532,77.3200926 C20.9004532,74.609537 30.5767576,72.4074074 42.5197141,72.4074074 C54.4594532,72.4074074 64.138975,74.609537 64.138975,77.3200926" id="Fill-90" fill="#494A46" sketch:type="MSShapeGroup"></path>
            <path d="M64.1936706,79.4151852 L64.1936706,77.6364815 L64.1791923,77.4727778 C63.863888,80.1219444 54.3162793,82.2469444 42.5744097,82.2469444 C30.6314532,82.2469444 20.9551489,80.0511111 20.9551489,77.3374074 L20.9792793,77.1296296 C20.9310184,77.2571296 20.9004532,77.3987963 20.9004532,77.5562037 L20.9004532,79.537963 C20.9004532,79.7378704 20.9551489,79.9188889 21.0307576,80.0731481 C21.7884532,82.6278704 31.1333663,84.6489815 42.5744097,84.6489815 C54.5141489,84.6489815 64.1936706,82.45 64.1936706,79.7378704 L64.1647141,79.5899074 L64.1936706,79.4151852" id="Fill-91" fill="#494A46" sketch:type="MSShapeGroup"></path>
            <path d="M43.3835836,76.5487963 C43.3835836,77.3248148 42.308975,77.9544444 40.9882358,77.9544444 C39.6642793,77.9544444 38.5961054,77.3248148 38.5961054,76.5487963 L38.5961054,64.365463 C38.5961054,63.5910185 39.6642793,62.962963 40.9882358,62.962963 C42.308975,62.962963 43.3835836,63.5910185 43.3835836,64.365463 L43.3835836,76.5487963" id="Fill-92" fill="#494A46" sketch:type="MSShapeGroup"></path>
            <path d="M62.2954097,6.2962963 L60.5676706,6.38916667 C65.988975,12.5060185 70.0171489,20.5353704 70.0171489,29.262037 C70.0171489,48.514537 54.0669315,63.8853704 34.3925836,63.8853704 C23.1043663,63.8853704 13.321888,57.9164815 6.79701843,49.9028704 L6.42219234,51.447037 C13.1851489,59.9659259 22.8292793,65.5113889 34.7368445,65.5113889 C55.1656706,65.5113889 71.7255836,49.6053704 71.7255836,29.6980556 C71.7255836,20.464537 68.155888,12.6760185 62.2954097,6.2962963" id="Fill-93" fill="#777776" sketch:type="MSShapeGroup"></path>
            <path d="M64.6151489,4.72222222 L62.6509315,6.31203704 C75.6491923,21.6702778 74.1933228,44.6690741 58.4972793,57.3907407 C43.1181489,69.8589815 19.4622793,66.4290741 6.77932278,51.445463 L4.81349669,53.0368519 C18.7142358,69.4575926 43.344975,72.9189815 60.1252793,59.3142593 C76.903975,45.7111111 78.515888,21.1413889 64.6151489,4.72222222" id="Fill-94" fill="#494A46" sketch:type="MSShapeGroup"></path>
            <path d="M44.290888,50.7937963 C44.290888,52.7676852 42.6564532,54.3685185 40.6375402,54.3685185 C38.6234532,54.3685185 36.9874097,52.7676852 36.9874097,50.7937963 C36.9874097,48.8214815 38.6234532,47.2222222 40.6375402,47.2222222 C42.6564532,47.2222222 44.290888,48.8214815 44.290888,50.7937963" id="Fill-95" fill="#EB8B2D" sketch:type="MSShapeGroup"></path>
            <path d="M44.5193228,12.3423148 C44.5193228,13.9415741 43.1937576,15.2417593 41.5577141,15.2417593 C39.9216706,15.2417593 38.5961054,13.9415741 38.5961054,12.3423148 C38.5961054,10.7414815 39.9216706,9.44444444 41.5577141,9.44444444 C43.1937576,9.44444444 44.5193228,10.7414815 44.5193228,12.3423148" id="Fill-96" fill="#EB8B2D" sketch:type="MSShapeGroup"></path>
            <path d="M21.0291489,44.9240741 C21.0291489,46.260463 19.9207576,47.3481481 18.5517576,47.3481481 C17.1827576,47.3481481 16.0743663,46.260463 16.0743663,44.9240741 C16.0743663,43.584537 17.1827576,42.5 18.5517576,42.5 C19.9207576,42.5 21.0291489,43.584537 21.0291489,44.9240741" id="Fill-97" fill="#EB8B2D" sketch:type="MSShapeGroup"></path>
            <path d="M3.20480104,56.0118519 L11.249888,48.7962963" id="Fill-98" fill="#ADC239" sketch:type="MSShapeGroup"></path>
            <path d="M53.4841718,53.3453704 C53.5999978,47.5244444 53.0578674,41.8451852 51.8690413,36.357963 C53.5372587,35.4717593 54.6697805,33.7434259 54.6697805,31.7522222 C54.6697805,31.1037037 54.5475196,30.4772222 54.3239109,29.9011111 C57.6104761,27.2582407 60.7072152,24.3178704 63.5980413,21.0894444 C64.6018674,23.9951852 65.1472152,27.1071296 65.1472152,30.3402778 C65.1472152,39.7123148 60.5672587,48.0549074 53.4841718,53.3453704 L53.4841718,53.3453704 Z M10.6494326,45.8606481 C12.7487805,45.8606481 14.8626065,45.7583333 16.9812587,45.5426852 C16.8010848,47.9494444 16.7689109,50.3467593 16.8815196,52.7236111 C14.4523892,50.7764815 12.3449978,48.4578704 10.6494326,45.8606481 L10.6494326,45.8606481 Z M10.4177805,15.1850926 C12.074737,19.8852778 14.1435196,24.3273148 16.6144761,28.4875926 C13.1589978,32.0040741 10.1555631,35.8589815 7.7006935,39.9452778 C6.61643263,36.9387963 6.02282393,33.7072222 6.02282393,30.3402778 C6.02282393,24.7853704 7.63312828,19.5925 10.4177805,15.1850926 L10.4177805,15.1850926 Z M30.3173457,1.8762963 C31.7329978,3.10564815 33.0810848,4.40111111 34.36965,5.75166667 C30.3463022,10.2865741 26.9616065,15.1898148 24.2493457,20.4141667 C23.8278674,20.2725 23.3790413,20.1922222 22.9093022,20.1922222 C20.6362152,20.1922222 18.7958674,21.994537 18.7958674,24.2171296 C18.7958674,24.8499074 18.9486935,25.4496296 19.215737,25.9816667 C18.697737,26.455463 18.1909978,26.9371296 17.6890848,27.4235185 C15.1875631,23.1451852 13.0930413,18.5331481 11.4505631,13.6535185 C15.8423022,7.59018519 22.5569978,3.24731481 30.3173457,1.8762963 L30.3173457,1.8762963 Z M38.3913892,1.54574074 C37.3409109,2.56416667 36.3242152,3.60305556 35.3461283,4.66712963 C34.3342587,3.60305556 33.2886065,2.58305556 32.2107805,1.60555556 C33.3191718,1.48277778 34.44365,1.41509259 35.5858239,1.41509259 C36.531737,1.41509259 37.4679978,1.46074074 38.3913892,1.54574074 L38.3913892,1.54574074 Z M51.6824326,27.0583333 C52.7296935,21.5018519 53.0321283,15.8918519 52.5656065,10.4408333 C53.6691718,10.1858333 54.7839978,9.94972222 55.9116935,9.74351852 L56.1948239,9.62388889 C59.1419544,12.430463 61.4922587,15.830463 63.0430413,19.6255556 L62.7679544,19.8175926 C59.9141283,23.0428704 56.844737,25.9816667 53.6016065,28.6166667 C53.0996935,27.9602778 52.441737,27.4235185 51.6824326,27.0583333 L51.6824326,27.0583333 Z M40.9395631,52.7897222 C43.3300848,54.1780556 45.7946065,55.4011111 48.3122152,56.4447222 C44.5800413,58.1950926 40.4135196,59.1962037 36.0201718,59.2607407 C37.7945631,57.1656481 39.4370413,55.0075926 40.9395631,52.7897222 L40.9395631,52.7897222 Z M20.3884761,34.190463 C22.0389978,36.4413889 23.8182152,38.5994444 25.7293457,40.6457407 C26.2264326,41.1793519 26.7347805,41.7003704 27.2479544,42.2166667 C24.395737,42.9800926 21.5033022,43.5467593 18.5883457,43.9150926 C18.919737,40.6441667 19.5229978,37.3921296 20.3884761,34.190463 L20.3884761,34.190463 Z M20.0747805,27.1291667 C20.3386065,27.3747222 20.6346065,27.5887963 20.9579544,27.7619444 C20.5654326,28.8024074 20.2034761,29.8491667 19.8640413,30.9022222 C19.3782152,30.175 18.9068674,29.430463 18.4467805,28.6812037 C18.9808674,28.157037 19.5229978,27.6375926 20.0747805,27.1291667 L20.0747805,27.1291667 Z M40.1609544,12.835 C35.3252152,14.8151852 30.759737,17.275463 26.4983022,20.207963 C26.2264326,20.3937037 25.9609978,20.5857407 25.6923457,20.7762037 C28.2839544,15.8698148 31.5270848,11.1822222 35.3718674,6.82833333 C37.0947805,8.72509259 38.6889978,10.732037 40.1609544,12.835 L40.1609544,12.835 Z M38.5184761,39.6650926 C41.0553892,38.5097222 43.5199109,37.209537 45.9039978,35.7802778 C46.39465,36.1753704 46.9593022,36.4901852 47.5738239,36.699537 C45.8090848,41.5744444 43.4298239,46.325 40.4794761,50.8567593 C36.7328239,48.5853704 33.2258674,45.9125926 29.9956065,42.8950926 C32.8848239,42.0088889 35.7354326,40.9322222 38.5184761,39.6650926 L38.5184761,39.6650926 Z M22.9093022,28.2436111 C25.1807805,28.2436111 27.0243457,26.4397222 27.0243457,24.2171296 C27.0243457,23.4127778 26.7798239,22.6666667 26.3663892,22.037037 C30.8144326,18.8684259 35.7241718,16.1846296 40.9974761,14.0580556 C43.6309109,18.0184259 45.8203457,22.2967593 47.5368239,26.8190741 C45.4599978,27.54 43.9751718,29.4776852 43.9751718,31.7522222 C43.9751718,32.8493519 44.3194326,33.8677778 44.9082152,34.7067593 C39.7973892,37.762037 34.3953892,40.1373148 28.8276935,41.7727778 C25.9320413,38.9315741 23.2776935,35.7975926 20.8952152,32.4133333 C21.324737,30.9966667 21.8041283,29.5910185 22.3333892,28.1963889 C22.5216065,28.2247222 22.7130413,28.2436111 22.9093022,28.2436111 L22.9093022,28.2436111 Z M50.3279109,26.6112963 C50.0013457,26.5530556 49.666737,26.5215741 49.3208674,26.5215741 L48.963737,26.5341667 C48.6419978,25.6747222 48.3057805,24.8184259 47.9470413,23.9731481 C46.3930413,20.3039815 44.5140848,16.8063889 42.36165,13.5307407 C45.1913457,12.4509259 48.1223892,11.5348148 51.1370848,10.7824074 C51.5826935,16.0461111 51.3011718,21.3633333 50.3279109,26.6112963 L50.3279109,26.6112963 Z M52.0572587,6.3325 C53.0498239,6.98574074 54.0005631,7.6987963 54.90465,8.4637963 C54.069737,8.62592593 53.2428674,8.79907407 52.4208239,8.98638889 C52.3194761,8.09546296 52.1972152,7.20925926 52.0572587,6.3325 L52.0572587,6.3325 Z M40.2623022,1.77712963 C43.931737,2.35166667 47.372737,3.58574074 50.4630413,5.35342593 L50.4598239,5.59898148 C50.6802152,6.8362037 50.8555631,8.07814815 50.9923022,9.32166667 C47.7411283,10.1244444 44.5848674,11.114537 41.5315631,12.2950926 C39.9373457,9.98592593 38.2063892,7.79166667 36.3483457,5.74222222 C37.5934761,4.38694444 38.8981283,3.06314815 40.2623022,1.77712963 L40.2623022,1.77712963 Z M9.76465002,44.4093519 C9.26112828,43.5278704 8.80104133,42.6180556 8.39243263,41.6799074 C10.8714326,37.3527778 13.8957805,33.3593519 17.3850413,29.7531481 C18.0043892,30.749537 18.6510848,31.727037 19.3186935,32.6887963 C18.2247805,36.4508333 17.4879978,40.2711111 17.1115631,44.0866667 C14.6872587,44.3337963 12.2500848,44.4424074 9.8096935,44.4093519 L9.76465002,44.4093519 L9.76465002,44.4093519 Z M18.4306935,53.8837037 C18.2312152,51.0440741 18.2424761,48.2028704 18.4580413,45.3711111 C21.7880413,44.9602778 25.11965,44.2834259 28.4094326,43.3578704 C31.8793892,46.6775926 35.6743022,49.5959259 39.6879978,52.0499074 C38.011737,54.5164815 36.1633457,56.9153704 34.1460413,59.2308333 C28.3064761,58.9537963 22.9060848,57.014537 18.4306935,53.8837037 L18.4306935,53.8837037 Z M51.9864761,54.3952778 C51.3510413,54.8092593 50.6979109,55.2027778 50.0286935,55.569537 C47.1571718,54.4535185 44.3902152,53.1202778 41.7310413,51.5934259 C44.7425196,46.9609259 47.1732587,42.0765741 48.9910848,36.975 L49.3208674,36.9860185 C49.7166065,36.9860185 50.1026935,36.9435185 50.4743022,36.8616667 C51.6599109,42.4732407 52.1811283,48.3350926 51.9832587,54.3401852 L51.9864761,54.3952778 L51.9864761,54.3952778 Z M66.8443892,1.62916667 C66.4406065,1.19944444 65.7536935,1.16796296 65.3145196,1.56462963 L57.3241283,8.72824074 C52.7843892,4.35703704 46.8820848,1.33796296 40.3009109,0.349444444 L39.9116065,0.299074074 C38.4991718,0.105462963 37.0545631,0 35.5858239,0 C18.4886065,0 4.57982393,13.6110185 4.57982393,30.3402778 C4.57982393,34.3352778 5.37451959,38.1508333 6.8126935,41.6437037 C6.80625872,41.8483333 6.8866935,42.0482407 7.04273698,42.1914815 C7.81491089,43.965463 8.75599785,45.6544444 9.8450848,47.2363889 L1.94799785,54.3197222 C1.50560654,54.7148148 1.47665002,55.3869444 1.88204133,55.8182407 C2.09599785,56.0480556 2.38717176,56.162963 2.67995437,56.162963 C2.94217176,56.162963 3.20438915,56.0700926 3.41191089,55.8827778 L11.1256065,48.9662963 C16.8059109,56.0889815 25.6569544,60.6805556 35.5858239,60.6805556 C52.6830413,60.6805556 66.5918239,47.067963 66.5918239,30.3402778 C66.5918239,22.6509259 63.6511283,15.6211111 58.8153892,10.2692593 L66.7784326,3.12768519 C67.2176065,2.72944444 67.2497805,2.06046296 66.8443892,1.62916667 L66.8443892,1.62916667 Z" id="Fill-99" fill="#FDF8BF" sketch:type="MSShapeGroup"></path>
            <path d="M43.8903228,12.8239815 C43.8903228,14.6892593 42.345975,16.2019444 40.4380619,16.2019444 C38.5333663,16.2019444 36.9874097,14.6892593 36.9874097,12.8239815 C36.9874097,10.9587037 38.5333663,9.44444444 40.4380619,9.44444444 C42.345975,9.44444444 43.8903228,10.9587037 43.8903228,12.8239815" id="Fill-100" fill="#FDF8BF" sketch:type="MSShapeGroup"></path>
            <path d="M21.3685836,44.3038889 C21.3685836,46.1691667 19.8226271,47.6802778 17.9163228,47.6802778 C16.0100184,47.6802778 14.4656706,46.1691667 14.4656706,44.3038889 C14.4656706,42.437037 16.0100184,40.9259259 17.9163228,40.9259259 C19.8226271,40.9259259 21.3685836,42.437037 21.3685836,44.3038889" id="Fill-101" fill="#FDF8BF" sketch:type="MSShapeGroup"></path>
            <path d="M45.4636271,51.3714815 C45.4636271,53.6617593 43.566975,55.5191667 41.2247141,55.5191667 C38.8856706,55.5191667 36.9874097,53.6617593 36.9874097,51.3714815 C36.9874097,49.0796296 38.8856706,47.2222222 41.2247141,47.2222222 C43.566975,47.2222222 45.4636271,49.0796296 45.4636271,51.3714815" id="Fill-102" fill="#FDF8BF" sketch:type="MSShapeGroup"></path>
            <path d="M25.1007576,23.3073148 C25.1007576,24.8766667 23.8009315,26.1485185 22.1970619,26.1485185 C20.5915836,26.1485185 19.2917576,24.8766667 19.2917576,23.3073148 C19.2917576,21.7363889 20.5915836,20.462963 22.1970619,20.462963 C23.8009315,20.462963 25.1007576,21.7363889 25.1007576,23.3073148" id="Fill-103" fill="#E26354" sketch:type="MSShapeGroup"></path>
            <path d="M53.0454097,30.6802778 C53.0454097,32.8462037 51.2533228,34.6012963 49.0397576,34.6012963 C46.8261923,34.6012963 45.030888,32.8462037 45.030888,30.6802778 C45.030888,28.5143519 46.8261923,26.7592593 49.0397576,26.7592593 C51.2533228,26.7592593 53.0454097,28.5143519 53.0454097,30.6802778" id="Fill-104" fill="#E26354" sketch:type="MSShapeGroup"></path>
            <path d="M43.090801,13.2175 C43.090801,14.4311111 42.0853663,15.4149074 40.8418445,15.4149074 C39.6031489,15.4149074 38.5961054,14.4311111 38.5961054,13.2175 C38.5961054,12.0023148 39.6031489,11.0185185 40.8418445,11.0185185 C42.0853663,11.0185185 43.090801,12.0023148 43.090801,13.2175" id="Fill-105" fill="#E26354" sketch:type="MSShapeGroup"></path>
            <path d="M20.5690619,44.7021296 C20.5690619,45.9157407 19.5636271,46.9011111 18.3217141,46.9011111 C17.0814097,46.9011111 16.0743663,45.9157407 16.0743663,44.7021296 C16.0743663,43.4885185 17.0814097,42.5 18.3217141,42.5 C19.5636271,42.5 20.5690619,43.4885185 20.5690619,44.7021296" id="Fill-106" fill="#E26354" sketch:type="MSShapeGroup"></path>
            <path d="M44.1155402,51.4989815 C44.1155402,52.9896296 42.8800619,54.1985185 41.3550184,54.1985185 C39.8315836,54.1985185 38.5961054,52.9896296 38.5961054,51.4989815 C38.5961054,50.0083333 39.8315836,48.7962963 41.3550184,48.7962963 C42.8800619,48.7962963 44.1155402,50.0083333 44.1155402,51.4989815" id="Fill-107" fill="#E26354" sketch:type="MSShapeGroup"></path>
            <path d="M29.538141,79.1712037 C28.7884888,79.1712037 27.9262279,79.0877778 27.022141,78.9130556 C24.3629671,78.4046296 22.3472714,77.2917593 22.5194019,76.435463 C22.6336192,75.8703704 23.6744453,75.5555556 25.1335323,75.5555556 C25.8831845,75.5555556 26.7438366,75.6389815 27.6463149,75.8137037 C30.3038801,76.3237037 32.3195758,77.4334259 32.1458366,78.2912963 C32.0332279,78.8563889 30.9956192,79.1712037 29.538141,79.1712037" id="Fill-113" fill="#61615D" sketch:type="MSShapeGroup"></path>
        </g>
    </g>
</svg>