<?xml version="1.0" encoding="UTF-8" standalone="no"?>
<svg width="145px" height="144px" viewBox="0 0 145 144" version="1.1" xmlns="http://www.w3.org/2000/svg" xmlns:xlink="http://www.w3.org/1999/xlink" xmlns:sketch="http://www.bohemiancoding.com/sketch/ns">
    <!-- Generator: Sketch 3.5.1 (25234) - http://www.bohemiancoding.com/sketch -->
    <title>idea</title>
    <desc>Created with Sketch.</desc>
    <defs>
        <path d="M10.8827234,20.5103509 C9.75382979,20.5103509 8.61076596,20.2314912 7.51965957,19.7155263 L8.39506383,17.5890351 C8.50212766,17.3295614 8.44387234,17.052193 8.27540426,16.849386 L8.23131915,16.8001754 L8.20297872,16.7673684 C8.04868085,16.6197368 7.83297872,16.5257895 7.59365957,16.5257895 C7.48659574,16.5302632 7.38110638,16.5332456 7.27719149,16.5332456 C5.71531915,16.5332456 4.4447234,16.0411404 3.28906383,15.0092105 C3.13476596,14.8735088 2.93953191,14.8064035 2.7427234,14.8064035 C2.67344681,14.8064035 2.60259574,14.8138596 2.53489362,14.8317544 C2.28455319,14.3709649 2.05940426,13.8892982 1.86259574,13.3867544 C-0.18106383,8.19429825 1.51778723,2.80201754 5.65706383,1.34210526 C6.36085106,1.09307018 7.09140426,0.97377193 7.82825532,0.97377193 C11.4164681,0.97377193 15.1526809,3.79070175 16.8468085,8.09736842 C18.8904681,13.2883333 17.191617,18.6835965 13.0523404,20.1435088 C12.3485532,20.3925439 11.618,20.5103509 10.8827234,20.5103509 L10.8827234,20.5103509 Z M6.13885106,18.9147368 C5.57519149,18.5240351 5.0367234,18.0677193 4.53446809,17.5532456 C5.15795745,17.7903509 5.81608511,17.9379825 6.51357447,18.0035965 L6.13885106,18.9147368 L6.13885106,18.9147368 Z" id="path-1"></path>
    </defs>
    <g id="Page-1" stroke="none" stroke-width="1" fill="none" fill-rule="evenodd" sketch:type="MSPage">
        <ellipse id="Oval-1" stroke="#9B9B9B" stroke-width="3" fill="#9B9B9B" sketch:type="MSShapeGroup" cx="72.5" cy="72" rx="70.5" ry="70"></ellipse>
        <g id="Group" sketch:type="MSLayerGroup" transform="translate(36.000000, 30.000000)">
            <path d="M36.4835745,69.4599123 C33.249617,69.4599123 29.2284255,69.1750877 27.5311489,67.5869298 C26.4148511,66.5430702 25.9944681,64.7222807 25.6858723,63.3921053 C25.6260426,63.1341228 25.5740851,62.9059649 25.5221277,62.710614 C24.8151915,60.1054386 24.4577872,58.7931579 20.1768085,52.0214912 L20.1468936,51.9916667 C17.1365106,48.4007895 15.5447234,44.1045614 15.5447234,39.5592982 C15.5447234,28.5167544 25.0277447,19.5350877 36.6866809,19.5350877 C48.3440426,19.5350877 57.8270638,28.5167544 57.8270638,39.5592982 C57.8270638,44.134386 56.2053617,48.4604386 53.1367234,52.0736842 C50.9970213,54.5640351 49.381617,58.0848246 47.6701702,61.8099123 C46.8246809,63.6485965 45.9524255,65.5528947 44.9857021,67.3885965 L44.8266809,67.5914035 C43.2333191,69.0513158 40.1930213,69.4599123 36.4835745,69.4599123" id="Fill-19" fill="#FFFFFF" sketch:type="MSShapeGroup"></path>
            <path d="M36.6866809,19.9809649 C25.2891064,19.9809649 16.0170638,28.7642982 16.0170638,39.5592982 C16.0170638,44.0001754 17.5726383,48.2024561 20.5168936,51.7142982 L20.5798723,51.7918421 C24.8970638,58.6186842 25.2591915,59.9488596 25.9787234,62.6002632 C26.0322553,62.795614 26.0873617,63.0342105 26.1471915,63.2966667 C26.441617,64.5731579 26.8462553,66.3164035 27.8617872,67.2692982 C29.0977447,68.425 31.9994894,69.0125439 36.4835745,69.0125439 C40.6244255,69.0125439 43.165617,68.4682456 44.4708511,67.2961404 L44.5810638,67.1559649 C45.536766,65.3411404 46.4011489,63.4532456 47.2371915,61.6294737 C48.9628085,57.8730702 50.5908085,54.3299123 52.7714468,51.7918421 C55.769234,48.2621053 57.3562979,44.0314912 57.3562979,39.5592982 C57.3562979,28.7642982 48.0826809,19.9809649 36.6866809,19.9809649 M36.4835745,69.9042982 C31.6767234,69.9042982 28.6395745,69.2526316 27.1989362,67.9030702 C25.9850213,66.7682456 25.5473191,64.8714035 25.2261277,63.4875439 C25.1678723,63.2385088 25.1159149,63.0103509 25.0655319,62.8239474 C24.3711915,60.2590351 24.0200851,58.970614 19.7926383,52.2869298 C16.700383,48.6021053 15.0739574,44.2059649 15.0739574,39.5592982 C15.0739574,28.272193 24.7679574,19.0877193 36.6866809,19.0877193 C48.6038298,19.0877193 58.2978298,28.272193 58.2978298,39.5592982 C58.2978298,44.2357895 56.6399149,48.6617544 53.5035745,52.3555263 C51.403234,54.7966667 49.8004255,58.2891228 48.1047234,61.9858772 C47.2560851,63.8320175 46.3791064,65.7392982 45.4076596,67.5869298 L45.3651489,67.6495614 L45.1541702,67.9120175 C43.6489787,69.2899123 40.9739574,69.9042982 36.4835745,69.9042982" id="Fill-20" fill="#89CCC5" sketch:type="MSShapeGroup"></path>
            <path d="M44.4881702,42.2002632 L44.4440851,42.1510526 L44.4157447,42.1182456 C44.2614468,41.970614 44.0457447,41.8766667 43.8064255,41.8766667 C42.0981277,41.9467544 40.7346383,41.460614 39.5018298,40.3600877 C39.2089787,40.1035965 38.7618298,40.087193 38.4516596,40.3257895 C37.1684681,41.3129825 36.1245957,41.0728947 34.6477447,40.2825439 C34.2777447,40.087193 33.8148511,40.1960526 33.5865532,40.5315789 C32.4812766,42.1510526 30.316383,41.9735965 29.6802979,41.885614 C29.4598723,41.8542982 29.2488936,41.9124561 29.0835745,42.0287719 C28.7655319,42.2166667 28.6222553,42.5999123 28.7639574,42.9399123 L33.5676596,54.6102632 C33.6904681,54.9085088 33.992766,55.0919298 34.3108085,55.0919298 L34.6020851,55.0397368 C35.0114468,54.8876316 35.2129787,54.4492105 35.0555319,54.0614912 L30.6816596,43.4439474 C31.8089787,43.4126316 33.347234,43.1173684 34.4808511,41.9094737 C35.792383,42.5134211 37.2912766,42.8385088 38.9051064,41.872193 C40.0387234,42.7385965 41.2998723,43.2232456 42.7263404,43.3544737 L38.3194043,54.0614912 C38.157234,54.4492105 38.3603404,54.8876316 38.7712766,55.0397368 L39.0625532,55.0919298 C39.3805957,55.0919298 39.6813191,54.9085088 39.8041277,54.6102632 L44.6078298,42.9399123 C44.7148936,42.6804386 44.6566383,42.4030702 44.4881702,42.2002632" id="Fill-21" fill="#E26354" sketch:type="MSShapeGroup"></path>
            <path d="M41.218,67.9418421 L41.2148511,67.9418421 C40.7724255,67.9388596 40.4165957,67.5973684 40.4197447,67.1813158 L40.5000426,55.9046491 C38.0438723,54.2180702 35.2570638,54.2061404 33.0795745,55.8837719 L32.8701702,67.1992105 C32.8622979,67.6182456 32.5300851,67.8896491 32.0577447,67.9418421 C31.6184681,67.934386 31.2657872,67.5899123 31.2736596,67.1738596 L31.4893617,55.5199123 C31.4925106,55.3096491 31.5885532,55.1113158 31.7522979,54.9711404 C34.6288511,52.5195614 38.5697447,52.510614 41.7958298,54.9398246 C41.9879149,55.0859649 42.0981277,55.3051754 42.0965532,55.5363158 L42.0162553,67.1917544 C42.0131064,67.6063158 41.6572766,67.9418421 41.218,67.9418421" id="Fill-22" fill="#89CCC5" sketch:type="MSShapeGroup"></path>
            <path d="M45.5666809,71.3985088 C45.5666809,72.1530702 44.9242979,72.7629825 44.1291915,72.7629825 L28.5828936,72.7629825 C27.7877872,72.7629825 27.1454043,72.1530702 27.1454043,71.3985088 C27.1454043,70.6469298 27.7877872,70.0385088 28.5828936,70.0385088 L44.1291915,70.0385088 C44.9242979,70.0385088 45.5666809,70.6469298 45.5666809,71.3985088" id="Fill-23" fill="#494A46" sketch:type="MSShapeGroup"></path>
            <path d="M45.5666809,74.6985965 C45.5666809,75.4501754 44.9242979,76.0600877 44.1291915,76.0600877 L28.5828936,76.0600877 C27.7877872,76.0600877 27.1454043,75.4501754 27.1454043,74.6985965 C27.1454043,73.9470175 27.7877872,73.3371053 28.5828936,73.3371053 L44.1291915,73.3371053 C44.9242979,73.3371053 45.5666809,73.9470175 45.5666809,74.6985965" id="Fill-24" fill="#494A46" sketch:type="MSShapeGroup"></path>
            <path d="M45.5666809,78.2104386 C45.5666809,78.9620175 44.9242979,79.5704386 44.1291915,79.5704386 L28.5828936,79.5704386 C27.7877872,79.5704386 27.1454043,78.9620175 27.1454043,78.2104386 C27.1454043,77.4573684 27.7877872,76.8489474 28.5828936,76.8489474 L44.1291915,76.8489474 C44.9242979,76.8489474 45.5666809,77.4573684 45.5666809,78.2104386" id="Fill-25" fill="#494A46" sketch:type="MSShapeGroup"></path>
            <path d="M41.6793191,81.1451754 C41.2982979,83.1881579 37.7793617,83.6191228 36.3560426,83.6146491 C34.9815319,83.6086842 31.0343404,83.0285965 31.0343404,81.1451754 C31.0343404,80.7097368 31.4059149,80.357807 31.8640851,80.357807 L40.8464255,80.357807 C41.3045957,80.357807 41.6793191,80.7097368 41.6793191,81.1451754" id="Fill-26" fill="#494A46" sketch:type="MSShapeGroup"></path>
            <path d="M37.9903404,13.1973684 C37.9903404,14.0533333 37.2582128,14.7467544 36.3560426,14.7467544 C35.4538723,14.7467544 34.7217447,14.0533333 34.7217447,13.1973684 L34.7217447,2.96008772 C34.7217447,2.10263158 35.4538723,1.41219298 36.3560426,1.41219298 C37.2582128,1.41219298 37.9903404,2.10263158 37.9903404,2.96008772 L37.9903404,13.1973684" id="Fill-27" fill="#FDF8BF" sketch:type="MSShapeGroup"></path>
            <path d="M53.2941702,18.5657895 C52.7714468,19.2607018 51.7511915,19.4277193 51.0143404,18.9311404 C50.2806383,18.4345614 50.1058723,17.4697368 50.6301702,16.7703509 L56.8934043,8.42842105 C57.4161277,7.73052632 58.4348085,7.56649123 59.1716596,8.06157895 C59.9069362,8.55815789 60.0801277,9.52447368 59.5574043,10.2208772 L53.2941702,18.5657895" id="Fill-28" fill="#FDF8BF" sketch:type="MSShapeGroup"></path>
            <path d="M61.6577447,33.2827193 C60.8217021,33.6003509 59.8675745,33.2215789 59.5306383,32.4252632 C59.1921277,31.6334211 59.596766,30.7312281 60.434383,30.4121053 L70.4542979,26.5751754 C71.2903404,26.2545614 72.2444681,26.637807 72.5829787,27.4311404 C72.9199149,28.2229825 72.5184255,29.1251754 71.679234,29.4457895 L61.6577447,33.2827193" id="Fill-29" fill="#FDF8BF" sketch:type="MSShapeGroup"></path>
            <path d="M61.1098298,47.9161404 C60.2312766,47.7133333 59.6928085,46.8782456 59.9069362,46.0461404 C60.1226383,45.2155263 61.0043404,44.7055263 61.8828936,44.9083333 L72.3845957,47.3300877 C73.2615745,47.5328947 73.8000426,48.3694737 73.5859149,49.1985965 C73.3717872,50.032193 72.4885106,50.5407018 71.6099574,50.3378947 L61.1098298,47.9161404" id="Fill-30" fill="#FDF8BF" sketch:type="MSShapeGroup"></path>
            <path d="M12.775234,50.6764035 C13.6537872,50.4735965 14.1938298,49.6370175 13.9781277,48.8064035 C13.764,47.9757895 12.8807234,47.4657895 12.0021702,47.6671053 L1.50046809,50.0903509 C0.62506383,50.2916667 0.0850212766,51.1282456 0.297574468,51.9588596 C0.513276596,52.7909649 1.39655319,53.2994737 2.27353191,53.0996491 L12.775234,50.6764035" id="Fill-31" fill="#FDF8BF" sketch:type="MSShapeGroup"></path>
            <path d="M19.8997021,18.6701754 C20.424,19.3680702 21.4426809,19.530614 22.1795319,19.0355263 C22.9148085,18.5404386 23.088,17.5741228 22.5652766,16.8792105 L16.3020426,8.53429825 C15.7777447,7.83789474 14.7590638,7.67236842 14.0237872,8.16745614 C13.2869362,8.66254386 13.1153191,9.62885965 13.6380426,10.3267544 L19.8997021,18.6701754" id="Fill-32" fill="#FDF8BF" sketch:type="MSShapeGroup"></path>
            <path d="M11.5361277,33.3885965 C12.3721702,33.7077193 13.3278723,33.3244737 13.666383,32.5326316 C14.0033191,31.7407895 13.5986809,30.835614 12.7610638,30.5179825 L2.73957447,26.6795614 C1.90195745,26.3604386 0.950978723,26.7436842 0.612468085,27.5340351 C0.273957447,28.3273684 0.678595745,29.2310526 1.5146383,29.5516667 L11.5361277,33.3885965" id="Fill-33" fill="#FDF8BF" sketch:type="MSShapeGroup"></path>
            <g id="Group-52" transform="translate(36.212766, 25.350877)">
                <mask id="mask-2" sketch:name="Clip 51" fill="white">
                    <use xlink:href="#path-1"></use>
                </mask>
                <g id="Clip-51"></g>
                <path d="M-0.18106383,0.97377193 L18.8904681,0.97377193 L18.8904681,20.5103509 L-0.18106383,20.5103509 L-0.18106383,0.97377193 Z" id="Fill-50" fill="#D7DCE0" sketch:type="MSShapeGroup" mask="url(#mask-2)"></path>
            </g>
            <path d="M43.7324255,45.0664035 C43.2600851,44.8427193 42.7971915,44.5742982 42.351617,44.265614 L42.7263404,43.3544737 C42.0288511,43.2888596 41.3707234,43.1412281 40.747234,42.9041228 C39.9851915,42.1242105 39.3050213,41.2085965 38.7476596,40.1826316 C38.8153617,40.1647368 38.8862128,40.1572807 38.9554894,40.1572807 C39.1522979,40.1572807 39.3475319,40.224386 39.5018298,40.3600877 C40.6574894,41.3920175 41.9280851,41.8841228 43.4899574,41.8841228 C43.5938723,41.8841228 43.6993617,41.8811404 43.8064255,41.8766667 C44.0457447,41.8766667 44.2614468,41.970614 44.4157447,42.1182456 L44.4440851,42.1510526 L44.4881702,42.2002632 C44.6566383,42.4030702 44.7148936,42.6804386 44.6078298,42.9399123 L43.7324255,45.0664035" id="Fill-53" fill="#C86A60" sketch:type="MSShapeGroup"></path>
            <path d="M33.3141702,71.9607018 L29.475617,71.9607018 C29.0520851,71.9607018 28.7088511,71.6371053 28.7088511,71.2359649 C28.7088511,70.8363158 29.0520851,70.5097368 29.475617,70.5097368 L33.3141702,70.5097368 C33.7377021,70.5097368 34.0825106,70.8363158 34.0825106,71.2359649 C34.0825106,71.6371053 33.7377021,71.9607018 33.3141702,71.9607018" id="Fill-54" fill="#B6B2AD" sketch:type="MSShapeGroup"></path>
            <path d="M33.3141702,75.1996491 L29.475617,75.1996491 C29.0520851,75.1996491 28.7088511,74.8760526 28.7088511,74.4764035 C28.7088511,74.0752632 29.0520851,73.7501754 29.475617,73.7501754 L33.3141702,73.7501754 C33.7377021,73.7501754 34.0825106,74.0752632 34.0825106,74.4764035 C34.0825106,74.8760526 33.7377021,75.1996491 33.3141702,75.1996491" id="Fill-55" fill="#B6B2AD" sketch:type="MSShapeGroup"></path>
            <path d="M33.3141702,78.7114912 L29.475617,78.7114912 C29.0520851,78.7114912 28.7088511,78.3864035 28.7088511,77.9867544 C28.7088511,77.585614 29.0520851,77.2620175 29.475617,77.2620175 L33.3141702,77.2620175 C33.7377021,77.2620175 34.0825106,77.585614 34.0825106,77.9867544 C34.0825106,78.3864035 33.7377021,78.7114912 33.3141702,78.7114912" id="Fill-56" fill="#B6B2AD" sketch:type="MSShapeGroup"></path>
        </g>
    </g>
</svg>