<?xml version="1.0" encoding="UTF-8" standalone="no"?>
<svg width="145px" height="144px" viewBox="0 0 145 144" version="1.1" xmlns="http://www.w3.org/2000/svg" xmlns:xlink="http://www.w3.org/1999/xlink" xmlns:sketch="http://www.bohemiancoding.com/sketch/ns">
    <!-- Generator: Sketch 3.5.1 (25234) - http://www.bohemiancoding.com/sketch -->
    <title>puzzel</title>
    <desc>Created with Sketch.</desc>
    <defs></defs>
    <g id="Page-1" stroke="none" stroke-width="1" fill="none" fill-rule="evenodd" sketch:type="MSPage">
        <ellipse id="Oval-1" stroke="#9B9B9B" stroke-width="3" fill="#9B9B9B" sketch:type="MSShapeGroup" cx="72.5" cy="72" rx="70.5" ry="70"></ellipse>
        <g id="Group-2" sketch:type="MSLayerGroup" transform="translate(35.000000, 34.000000)">
            <path d="M42.7733676,26.4897493 L42.5010343,35.6277493 C42.4680676,36.7587493 41.5636343,37.6497493 40.4843343,37.6137493 L30.5140676,37.3617493 C31.0358009,36.6372493 31.4385676,35.7627493 31.6464009,34.7757493 C32.2512676,31.9272493 29.7687343,28.5627493 26.5795676,28.4622493 C23.3861009,28.3587493 20.7072009,31.5522493 21.1458009,34.4367493 C21.2948676,35.4372493 21.6446009,36.3342493 22.1233343,37.0902493 L11.7230676,36.8352493 C10.6423343,36.8007493 9.79380093,35.8527493 9.82820093,34.7232493 L10.0976676,25.5927493 C9.92566759,25.7667493 8.66146759,26.6127493 8.11250093,26.9202493 C7.67820093,27.1002493 7.21236759,27.2337493 6.72503426,27.3162493 C3.97016759,27.7722493 1.33713426,25.4382493 1.43603426,22.1007493 C1.53350093,18.7587493 4.29983426,16.6017493 7.02173426,17.2362493 C7.98206759,17.4582493 8.83490093,17.8887493 9.53293426,18.4512493 C9.61176759,18.5352493 10.1249009,18.9897493 10.2868676,19.1742493 L10.5549009,10.0227493 C10.5907343,8.89024932 11.4923009,8.00074932 12.5759009,8.03524932 L23.4850009,8.30824932 C22.9690009,7.52824932 22.5920343,6.58924932 22.4343676,5.53624932 C21.9986343,2.65324932 24.2260343,-0.0992506837 27.4195009,0.00274931625 C30.6115343,0.107749316 32.6698009,2.99974932 32.0649343,5.84674932 C31.8485009,6.88774932 31.4156343,7.80124932 30.8552009,8.54374932 L41.3343009,8.81524932 C42.4164676,8.84974932 43.2664343,9.79624932 43.2306009,10.9287493 L42.9812009,19.4052493 C42.1828343,18.4302493 41.0146676,17.6637493 39.6114343,17.3382493 C36.8895343,16.7082493 34.1060009,19.3047493 34.0056676,22.6467493 C33.9067676,25.9842493 36.5312009,28.7862493 39.2860676,28.3317493 C40.6993343,28.1007493 41.9033343,27.4152493 42.7590343,26.5017493 L42.7719343,26.4867493 L42.7733676,26.4897493" id="Fill-551" fill="#FDF8BF" sketch:type="MSShapeGroup"></path>
            <path d="M41.3399591,56.4910936 L41.0690591,65.6305936 C41.0346591,66.7615936 40.1302258,67.6495936 39.0509258,67.6165936 L29.0806591,67.3645936 C29.6023924,66.6415936 30.0051591,65.7655936 30.2144258,64.7800936 C30.8178591,61.9270936 28.3367591,58.5640936 25.1447258,58.4635936 C21.9512591,58.3600936 19.2752258,61.5550936 19.7123924,64.4380936 C19.8600258,65.4370936 20.2111924,66.3370936 20.6899258,67.0915936 L10.2910924,66.8380936 C9.21035909,66.8020936 8.36039242,65.8585936 8.39335909,64.7260936 L8.66425909,55.5940936 C8.49225909,55.7680936 7.22805909,56.6125936 6.67909242,56.9230936 C6.24335909,57.1030936 5.77895909,57.2380936 5.29019242,57.3190936 C2.53675909,57.7735936 -0.0948409129,55.4425936 0.00262575377,52.1035936 C0.10009242,48.7615936 2.86642575,46.6060936 5.58689242,47.2375936 C6.55009242,47.4595936 7.40149242,47.8900936 8.09809242,48.4540936 C8.17692575,48.5395936 8.69149242,48.9910936 8.85345909,49.1770936 L9.12292575,40.0240936 C9.15732575,38.8915936 10.0603258,38.0035936 11.1410591,38.0395936 L22.0530258,38.3080936 C21.5341591,37.5325936 21.1586258,36.5905936 21.0009591,35.5375936 C20.5652258,32.6545936 22.7926258,29.9035936 25.9860924,30.0025936 C29.1766924,30.1090936 31.2378258,32.9995936 30.6315258,35.8510936 C30.4150924,36.8890936 29.9836591,37.8040936 29.4189258,38.5465936 L39.9008924,38.8180936 C40.9816258,38.8540936 41.8315924,39.7975936 41.7986258,40.9300936 L41.5477924,49.4080936 C40.7494258,48.4330936 39.5812591,47.6665936 38.1780258,47.3425936 C35.4561258,46.7110936 32.6725924,49.3060936 32.5722591,52.6495936 C32.4733591,55.9885936 35.0992258,58.7905936 37.8526591,58.3315936 C39.2659258,58.1020936 40.4699258,57.4165936 41.3241924,56.5045936 L41.3385258,56.4895936 L41.3399591,56.4910936" id="Fill-552" fill="#15928A" sketch:type="MSShapeGroup"></path>
            <path d="M82.6050303,49.6331657 L84.7808303,58.4906657 C85.0502969,59.5841657 84.4210636,60.7016657 83.3718636,60.9866657 L73.7298303,63.6521657 C74.0394303,62.8031657 74.1927969,61.8491657 74.1297303,60.8366657 C73.9519969,57.9281657 70.6710969,55.4216657 67.5793969,56.2541657 C64.4848303,57.0881657 62.7662636,60.9371657 63.9544969,63.5756657 C64.3629969,64.4936657 64.9406303,65.2541657 65.6013969,65.8406657 L55.5465636,68.6321657 C54.5002303,68.9171657 53.4309636,68.2541657 53.1629303,67.1561657 L50.9871303,58.3091657 C50.8681636,58.5281657 49.8805969,59.7086657 49.4348303,60.1661657 C49.0650303,60.4661657 48.6565303,60.7316657 48.2078969,60.9491657 C45.6837969,62.1896657 42.5347636,60.7211657 41.7378303,57.4856657 C40.9423303,54.2471657 43.0249636,51.3701657 45.8056303,51.1841657 C46.7903303,51.1151657 47.7219969,51.2801657 48.5418636,51.6161657 C48.6407636,51.6776657 49.2542303,51.9611657 49.4591969,52.0931657 L47.2776636,43.2251657 C47.0096303,42.1271657 47.6388636,41.0096657 48.6880636,40.7276657 L59.2373969,37.8026657 C58.5321969,37.2056657 57.9215969,36.4121657 57.4887303,35.4476657 C56.3004969,32.8076657 57.7080303,29.5136657 60.8011636,28.6781657 C63.8928636,27.8486657 66.6434303,30.0251657 66.8211636,32.9351657 C66.8885303,33.9971657 66.7179636,35.0021657 66.3768303,35.8811657 L76.5133636,33.0806657 C77.5596969,32.7986657 78.6275303,33.4586657 78.8984303,34.5551657 L80.9165636,42.7691657 C79.8902969,42.0656657 78.5644636,41.6711657 77.1311303,41.7701657 C74.3490303,41.9576657 72.3681636,45.2651657 73.1607969,48.5006657 C73.9591636,51.7376657 77.2242969,53.6621657 79.7483969,52.4201657 C81.0426969,51.7856657 82.0173636,50.7761657 82.5949969,49.6481657 L82.6050303,49.6331657" id="Fill-553" fill="#E26354" sketch:type="MSShapeGroup"></path>
            <path d="M23.7876,21.3555 L27.3680667,21.3555 L25.5606333,16.179 L23.7876,21.3555 L23.7876,21.3555 Z M28.595,24.8385 L28.0231,23.262 L23.1483333,23.262 L22.5778667,24.8745 C22.3528333,25.5015 22.1622,25.9245 22.0045333,26.145 C21.8468667,26.3625 21.5874333,26.4735 21.2262333,26.4735 C20.9223667,26.4735 20.6529,26.3565 20.4178333,26.1225 C20.1842,25.887 20.0666667,25.6215 20.0666667,25.3245 C20.0666667,25.155 20.0939,24.9795 20.1483667,24.7965 C20.2028333,24.6135 20.2931333,24.3585 20.4178333,24.0345 L23.4851667,15.8865 C23.5711667,15.654 23.6772333,15.3735 23.7990667,15.045 C23.9223333,14.7165 24.0527667,14.4435 24.1932333,14.226 C24.3308333,14.01 24.5128667,13.8345 24.7407667,13.701 C24.9658,13.566 25.2438667,13.5 25.5778333,13.5 C25.9161,13.5 26.1970333,13.566 26.4235,13.701 C26.6514,13.8345 26.8334333,14.007 26.9724667,14.2185 C27.1100667,14.43 27.2276,14.6565 27.3222,14.898 C27.4182333,15.141 27.5415,15.4665 27.6877,15.8685 L30.8195333,23.9655 C31.0646333,24.582 31.1879,25.029 31.1879,25.3095 C31.1879,25.6005 31.0718,25.8675 30.8396,26.1075 C30.6074,26.352 30.3279,26.4735 30.0025333,26.4735 C29.8104667,26.4735 29.6470667,26.4375 29.5123333,26.367 C29.3747333,26.295 29.2615,26.1975 29.1669,26.0745 C29.0737333,25.9515 28.9762667,25.764 28.8673333,25.509 C28.7627,25.2555 28.6724,25.032 28.595,24.8385 L28.595,24.8385 Z" id="Fill-554" fill="#E26354" sketch:type="MSShapeGroup"></path>
            <path d="M24.7908797,51.6014411 L22.4344797,51.5309411 L22.3413131,54.9464411 L24.7751131,55.0184411 C26.3044797,55.0649411 27.0870797,54.5084411 27.1171797,53.3549411 C27.1329464,52.7624411 26.9451797,52.3274411 26.5567464,52.0514411 C26.1668797,51.7739411 25.5777797,51.6239411 24.7908797,51.6014411 L24.7908797,51.6014411 Z M22.5591797,46.8074411 L22.4789131,49.8314411 L24.5543797,49.8914411 C25.1176797,49.9079411 25.5548464,49.8659411 25.8658797,49.7609411 C26.1754797,49.6619411 26.4177131,49.4534411 26.5882797,49.1459411 C26.7215797,48.9269411 26.7918131,48.6779411 26.7989797,48.4004411 C26.8147464,47.8109411 26.6241131,47.4104411 26.2270797,47.2049411 C25.8314797,46.9994411 25.2223131,46.8854411 24.3981464,46.8599411 L22.5591797,46.8074411 L22.5591797,46.8074411 Z M24.8209797,56.8019411 L21.4024797,56.7014411 C20.9079797,56.6879411 20.5596797,56.5619411 20.3547131,56.3234411 C20.1511797,56.0834411 20.0537131,55.7129411 20.0680464,55.2104411 L20.3031131,46.4129411 C20.3160131,45.8969411 20.4349797,45.5294411 20.6571464,45.3119411 C20.8807464,45.0884411 21.2319131,44.9864411 21.7149464,45.0014411 L25.3369797,45.1064411 C25.8716131,45.1214411 26.3331464,45.1709411 26.7230131,45.2534411 C27.1114464,45.3299411 27.4583131,45.4754411 27.7636131,45.6809411 C28.0244797,45.8534411 28.2523797,46.0679411 28.4501797,46.3274411 C28.6465464,46.5869411 28.7927464,46.8719411 28.8916464,47.1794411 C28.9905464,47.4899411 29.0349797,47.8139411 29.0263797,48.1559411 C28.9948464,49.3259411 28.4114797,50.1659411 27.2791464,50.6759411 C28.7354131,51.2069411 29.4449131,52.1819411 29.4076464,53.5949411 C29.3890131,54.2519411 29.2141464,54.8354411 28.8801797,55.3499411 C28.5462131,55.8644411 28.1047464,56.2394411 27.5529131,56.4734411 C27.2089131,56.6129411 26.8133131,56.7059411 26.3704131,56.7554411 C25.9260797,56.8034411 25.4086464,56.8184411 24.8209797,56.8019411 L24.8209797,56.8019411 Z" id="Fill-555" fill="#FDF8BF" sketch:type="MSShapeGroup"></path>
            <path d="M69.0709422,49.0327683 C69.1497755,49.3927683 69.1497755,49.8037683 69.0709422,50.2657683 C68.9935422,50.7262683 68.8172422,51.2032683 68.5391755,51.6922683 C68.2639755,52.1842683 67.8698088,52.6237683 67.3595422,53.0107683 C66.8464088,53.3992683 66.2157422,53.6812683 65.4618088,53.8627683 C64.8899088,53.9977683 64.3581422,54.0652683 63.8650755,54.0622683 C63.3748755,54.0622683 62.9104755,53.9872683 62.4776088,53.8372683 C62.0433088,53.6902683 61.6233422,53.4592683 61.2177088,53.1442683 C60.8550755,52.8562683 60.5239755,52.5157683 60.2258422,52.1227683 C59.9291422,51.7312683 59.6754422,51.2977683 59.4647422,50.8222683 C59.2554755,50.3452683 59.0892088,49.8277683 58.9673755,49.2652683 C58.7695755,48.3547683 58.7179755,47.5072683 58.8125755,46.7242683 C58.9100422,45.9442683 59.1393755,45.2377683 59.4991422,44.6122683 C59.8603422,43.9882683 60.3290422,43.4632683 60.9052422,43.0477683 C61.4814422,42.6247683 62.1293088,42.3307683 62.8488422,42.1597683 C63.7260422,41.9482683 64.5459088,41.9482683 65.3098755,42.1507683 C66.0738422,42.3532683 66.6973422,42.6787683 67.1789422,43.1287683 C67.6605422,43.5832683 67.9543755,44.0467683 68.0575755,44.5267683 C68.1149088,44.7907683 68.0776422,45.0427683 67.9429088,45.2857683 C67.8096088,45.5287683 67.6189755,45.6802683 67.3667088,45.7387683 C67.0843422,45.8062683 66.8607422,45.7867683 66.6901755,45.6832683 C66.5196088,45.5767683 66.3103422,45.3742683 66.0652422,45.0742683 C65.6553088,44.5822683 65.2296088,44.2417683 64.7824088,44.0542683 C64.3352088,43.8697683 63.8278088,43.8457683 63.2616422,43.9807683 C62.3615088,44.1937683 61.7193755,44.7232683 61.3438422,45.5692683 C60.9640088,46.4107683 60.9210088,47.4922683 61.2062422,48.8122683 C61.3997422,49.6927683 61.6763755,50.4007683 62.0404422,50.9257683 C62.4045088,51.4537683 62.8345088,51.8122683 63.3304422,51.9967683 C63.8263755,52.1812683 64.3653088,52.2052683 64.9458088,52.0672683 C65.5764755,51.9157683 66.0738422,51.6247683 66.4379088,51.1942683 C66.8019755,50.7637683 67.0270088,50.2012683 67.1101422,49.5157683 C67.1388088,49.1962683 67.2018755,48.9247683 67.2993422,48.7027683 C67.3953755,48.4822683 67.5960422,48.3352683 67.9013422,48.2647683 C68.1622088,48.2002683 68.4058755,48.2437683 68.6352088,48.3877683 C68.8645422,48.5347683 69.0093088,48.7477683 69.0709422,49.0327683" id="Fill-556" fill="#FDF8BF" sketch:type="MSShapeGroup"></path>
        </g>
    </g>
</svg>